<svg width="20" height="16" fill="none" xmlns="http://www.w3.org/2000/svg"><path opacity=".5" d="M10 0c4.984 0 9.13 3.449 10 8-.869 4.551-5.016 8-10 8S.87 12.551 0 8c.869-4.551 5.016-8 10-8Zm0 14.222a8.534 8.534 0 0 0 5.188-1.746A7.972 7.972 0 0 0 18.113 8a7.973 7.973 0 0 0-2.927-4.471A8.534 8.534 0 0 0 10 1.785 8.534 8.534 0 0 0 4.814 3.53 7.973 7.973 0 0 0 1.887 8a7.972 7.972 0 0 0 2.925 4.476A8.534 8.534 0 0 0 10 14.222ZM10 12a4.245 4.245 0 0 1-2.941-1.172A3.924 3.924 0 0 1 5.84 8c0-1.06.438-2.078 1.218-2.828A4.245 4.245 0 0 1 10 4c1.103 0 2.161.421 2.941 1.172A3.924 3.924 0 0 1 14.16 8c0 1.06-.438 2.078-1.218 2.828A4.245 4.245 0 0 1 10 12Zm0-1.778c.613 0 1.2-.234 1.634-.65A2.18 2.18 0 0 0 12.31 8a2.18 2.18 0 0 0-.677-1.571A2.358 2.358 0 0 0 10 5.778c-.613 0-1.2.234-1.634.65A2.18 2.18 0 0 0 7.689 8c0 .59.244 1.155.677 1.571.433.417 1.021.651 1.634.651Z" fill="#000218"/></svg>