<svg width="23" height="18" fill="none" xmlns="http://www.w3.org/2000/svg"><path d="M22.999 2.137a9.748 9.748 0 0 1-2.71.714A4.592 4.592 0 0 0 22.365.338c-.925.53-1.94.902-2.997 1.103A4.777 4.777 0 0 0 16.69.06a4.879 4.879 0 0 0-2.996.477 4.617 4.617 0 0 0-2.074 2.135 4.386 4.386 0 0 0-.293 2.91A13.808 13.808 0 0 1 5.94 4.205 13.316 13.316 0 0 1 1.6.837 4.397 4.397 0 0 0 .962 3.12c0 1.575.833 2.966 2.1 3.78a4.843 4.843 0 0 1-2.138-.568v.057c0 1.049.377 2.065 1.067 2.877a4.758 4.758 0 0 0 2.719 1.577 4.93 4.93 0 0 1-2.133.078 4.555 4.555 0 0 0 1.679 2.258c.79.566 1.745.88 2.73.897a9.613 9.613 0 0 1-3.299 1.61A9.827 9.827 0 0 1 0 15.958 13.73 13.73 0 0 0 7.233 18c8.68 0 13.427-6.922 13.427-12.924 0-.196-.006-.393-.015-.587A9.395 9.395 0 0 0 23 2.138l-.001-.001Z" fill="#FCFCFC"/></svg>