<svg width="28" height="16" fill="none" xmlns="http://www.w3.org/2000/svg"><path fill-rule="evenodd" clip-rule="evenodd" d="M13.7 15.933h1.673s.506-.056.764-.334c.237-.256.23-.737.23-.737s-.033-2.25 1.01-2.58c1.027-.327 2.346 2.174 3.745 3.135 1.057.728 1.86.568 1.86.568l3.74-.052s1.956-.12 1.028-1.661c-.076-.126-.54-1.14-2.78-3.223-2.344-2.18-2.03-1.827.794-5.597 1.72-2.297 2.408-3.698 2.193-4.299-.205-.572-1.47-.42-1.47-.42l-4.21.026s-.312-.043-.544.096c-.226.136-.372.452-.372.452s-.666 1.777-1.555 3.288c-1.875 3.19-2.624 3.358-2.93 3.16-.713-.462-.535-1.854-.535-2.844 0-3.09.468-4.378-.911-4.712-.458-.11-.795-.184-1.965-.195-1.502-.016-2.774.004-3.494.358-.479.234-.848.758-.623.788.278.037.908.17 1.242.626.432.588.417 1.908.417 1.908s.247 3.638-.58 4.09c-.567.31-1.345-.323-3.017-3.216-.856-1.482-1.503-3.12-1.503-3.12s-.124-.306-.347-.47C5.29.77 4.913.707 4.913.707l-4 .026S.311.75.09 1.011c-.196.233-.015.714-.015.714s3.132 7.34 6.679 11.04c3.251 3.39 6.944 3.168 6.944 3.168Z" fill="#FCFCFC"/></svg>