<svg xmlns="http://www.w3.org/2000/svg" xmlns:xlink="http://www.w3.org/1999/xlink"><symbol id="arrow-down"><path opacity=".5" d="M1 7.333 5 11m0 0 4-3.667M5 11V0" stroke="#FCFCFC"/></symbol><symbol id="arrow-up"><path opacity=".5" d="M4.5 1 8 4.667M4.5 1 1 4.667M4.5 1v11" stroke="#FCFCFC"/></symbol><symbol id="email-icon (1)"><path d="M1 1h23M1 1v15h23V1M1 1l11.616 8.94L24 1" stroke="#000218"/></symbol><symbol id="eye icon (1)"><path opacity=".5" d="M10 0c4.984 0 9.13 3.449 10 8-.869 4.551-5.016 8-10 8S.87 12.551 0 8c.869-4.551 5.016-8 10-8Zm0 14.222a8.534 8.534 0 0 0 5.188-1.746A7.972 7.972 0 0 0 18.113 8a7.973 7.973 0 0 0-2.927-4.471A8.534 8.534 0 0 0 10 1.785 8.534 8.534 0 0 0 4.814 3.53 7.973 7.973 0 0 0 1.887 8a7.972 7.972 0 0 0 2.925 4.476A8.534 8.534 0 0 0 10 14.222ZM10 12a4.245 4.245 0 0 1-2.941-1.172A3.924 3.924 0 0 1 5.84 8c0-1.06.438-2.078 1.218-2.828A4.245 4.245 0 0 1 10 4c1.103 0 2.161.421 2.941 1.172A3.924 3.924 0 0 1 14.16 8c0 1.06-.438 2.078-1.218 2.828A4.245 4.245 0 0 1 10 12Zm0-1.778c.613 0 1.2-.234 1.634-.65A2.18 2.18 0 0 0 12.31 8a2.18 2.18 0 0 0-.677-1.571A2.358 2.358 0 0 0 10 5.778c-.613 0-1.2.234-1.634.65A2.18 2.18 0 0 0 7.689 8c0 .59.244 1.155.677 1.571.433.417 1.021.651 1.634.651Z" fill="#000218"/></symbol><symbol id="facebook (1)"><path d="M8.172 4.188H11V0H7.676v.015C3.65.158 2.823 2.428 2.751 4.813h-.009v2.09H0v4.103h2.742V22h4.133V11.005h3.386l.654-4.101H6.877V5.64c0-.805.534-1.452 1.295-1.452Z" fill="#FCFCFC"/></symbol><symbol id="instagram (1)"><path d="M13.933 10.988a2.933 2.933 0 1 1-5.867 0 2.933 2.933 0 0 1 5.867 0Z" fill="#FCFCFC"/><path fill-rule="evenodd" clip-rule="evenodd" d="M0 5.133A5.133 5.133 0 0 1 5.133 0h11.734A5.133 5.133 0 0 1 22 5.133v11.734A5.133 5.133 0 0 1 16.867 22H5.133A5.133 5.133 0 0 1 0 16.867V5.133Zm18.137 0a1.467 1.467 0 1 1-2.934 0 1.467 1.467 0 0 1 2.934 0ZM16.5 10.988a5.5 5.5 0 1 1-11 0 5.5 5.5 0 0 1 11 0Z" fill="#FCFCFC"/></symbol><symbol id="logotype"><path d="M0 .27h11.975v2.772H3.494v3.809h7.59v2.772h-7.59v6.107H0V.27ZM15.453.27h3.494v15.46h-3.494V.27ZM22.882.27h3.398l6.36 8.406c.194.255.515.759.965 1.51l.12-.068-.072-1.307V.271h3.397V15.73h-3.397l-6.385-8.474a12.423 12.423 0 0 1-.94-1.487l-.12.068c.048.646.072 1.096.072 1.352v8.54h-3.398V.27ZM45.886.27h4.385l6.458 15.46h-3.807l-1.181-2.953h-7.518l-1.18 2.953h-3.615L45.886.27Zm4.746 9.78-1.566-3.92c-.193-.481-.538-1.495-1.036-3.043h-.12c-.498 1.548-.844 2.562-1.036 3.043l-1.567 3.92h5.325ZM59.106.27h3.398l6.361 8.406c.193.255.514.759.964 1.51l.12-.068-.072-1.307V.271h3.398V15.73h-3.398l-6.385-8.474a12.435 12.435 0 0 1-.94-1.487l-.12.068c.048.646.072 1.096.072 1.352v8.54h-3.398V.27ZM84.616 16c-5.333 0-8-2.667-8-8 0-2.674.699-4.672 2.096-5.994C80.11.669 82.078 0 84.616 0c1.397 0 2.65.225 3.759.676 1.124.436 2.007 1.112 2.65 2.028.659.902.988 2.006.988 3.313h-3.59c0-1.007-.346-1.795-1.036-2.366-.691-.586-1.59-.88-2.699-.88-1.51 0-2.634.421-3.373 1.263-.74.841-1.109 2.05-1.109 3.628v.676c0 3.26 1.494 4.89 4.482 4.89 1.173 0 2.104-.285 2.795-.856.707-.571 1.06-1.36 1.06-2.366h3.47c0 1.322-.321 2.433-.964 3.335-.642.886-1.518 1.555-2.626 2.006-1.109.435-2.378.653-3.807.653ZM95.33.27h12.988v2.772h-9.494v3.403h8.434v2.772h-8.434v3.74h9.638v2.773H95.33V.27ZM124.228 16c-1.831 0-3.236-.39-4.216-1.172-.98-.781-1.47-1.93-1.47-3.448v-.969h3.47v.924c0 .616.184 1.09.554 1.42.385.33.94.496 1.662.496.707 0 1.237-.166 1.591-.496.353-.33.53-.804.53-1.42V.27h3.518v11.11c0 1.518-.482 2.667-1.446 3.448-.964.781-2.361 1.172-4.193 1.172ZM141.424 16c-2.65 0-4.706-.661-6.168-1.983-1.462-1.337-2.193-3.343-2.193-6.017 0-2.674.731-4.672 2.193-5.994C136.718.669 138.774 0 141.424 0c2.667 0 4.731.669 6.193 2.006 1.462 1.322 2.193 3.32 2.193 5.994s-.731 4.68-2.193 6.017c-1.462 1.322-3.526 1.983-6.193 1.983Zm0-2.772c1.575 0 2.763-.42 3.567-1.262.819-.856 1.228-2.066 1.228-3.628v-.676c0-1.562-.409-2.764-1.228-3.606-.804-.856-1.992-1.284-3.567-1.284-1.574 0-2.762.428-3.566 1.284-.803.842-1.204 2.044-1.204 3.606v.676c0 1.562.401 2.772 1.204 3.628.804.841 1.992 1.262 3.566 1.262ZM160.203 16c-2.233 0-3.968-.51-5.205-1.532s-1.855-2.517-1.855-4.485V.27h3.493v9.555c0 1.112.306 1.96.916 2.547.627.57 1.51.856 2.651.856 1.14 0 2.024-.285 2.65-.856.643-.586.964-1.435.964-2.547V.27h3.494v9.713c0 1.968-.627 3.463-1.88 4.485-1.237 1.021-2.98 1.532-5.228 1.532ZM171.255.27h8.77c1.848 0 3.237.429 4.169 1.285.932.841 1.397 2.028 1.397 3.56 0 2.164-.963 3.606-2.891 4.327l3.373 6.288h-3.783l-2.915-5.77h-4.626v5.77h-3.494V.27Zm8.457 6.964c.755 0 1.333-.188 1.735-.564.402-.375.602-.893.602-1.555 0-.66-.2-1.171-.602-1.532-.402-.36-.98-.54-1.735-.54h-4.963v4.19h4.963ZM189.367.27h3.397l6.361 8.406c.193.255.514.759.964 1.51l.121-.068-.073-1.307V.271h3.398V15.73h-3.398l-6.385-8.474a12.549 12.549 0 0 1-.94-1.487l-.12.068c.048.646.072 1.096.072 1.352v8.54h-3.397V.27ZM212.37.27h4.386l6.457 15.46h-3.807l-1.181-2.953h-7.517l-1.181 2.953h-3.614L212.37.27Zm4.747 9.78-1.566-3.92c-.193-.481-.538-1.495-1.036-3.043h-.121c-.498 1.548-.843 2.562-1.036 3.043l-1.566 3.92h5.325ZM225.591.27h3.494v12.62H238v2.84h-12.409V.27Z" fill="#FCFCFC"/></symbol><symbol id="search icon (1) (1)"><path d="m19 19-4.35-4.35M17 9A8 8 0 1 1 1 9a8 8 0 0 1 16 0Z" stroke="#000218"/></symbol><symbol id="search icon (1)"><path d="m19 19-4.35-4.35M17 9A8 8 0 1 1 1 9a8 8 0 0 1 16 0Z" stroke="#000218"/></symbol><symbol id="twitter (1)"><path d="M22.999 2.137a9.748 9.748 0 0 1-2.71.714A4.592 4.592 0 0 0 22.365.338c-.925.53-1.94.902-2.997 1.103A4.777 4.777 0 0 0 16.69.06a4.879 4.879 0 0 0-2.996.477 4.617 4.617 0 0 0-2.074 2.135 4.386 4.386 0 0 0-.293 2.91A13.808 13.808 0 0 1 5.94 4.205 13.316 13.316 0 0 1 1.6.837 4.397 4.397 0 0 0 .962 3.12c0 1.575.833 2.966 2.1 3.78a4.843 4.843 0 0 1-2.138-.568v.057c0 1.049.377 2.065 1.067 2.877a4.758 4.758 0 0 0 2.719 1.577 4.93 4.93 0 0 1-2.133.078 4.555 4.555 0 0 0 1.679 2.258c.79.566 1.745.88 2.73.897a9.613 9.613 0 0 1-3.299 1.61A9.827 9.827 0 0 1 0 15.958 13.73 13.73 0 0 0 7.233 18c8.68 0 13.427-6.922 13.427-12.924 0-.196-.006-.393-.015-.587A9.395 9.395 0 0 0 23 2.138l-.001-.001Z" fill="#FCFCFC"/></symbol><symbol id="vkontakte (1)"><path fill-rule="evenodd" clip-rule="evenodd" d="M13.7 15.933h1.673s.506-.056.764-.334c.237-.256.23-.737.23-.737s-.033-2.25 1.01-2.58c1.027-.327 2.346 2.174 3.745 3.135 1.057.728 1.86.568 1.86.568l3.74-.052s1.956-.12 1.028-1.661c-.076-.126-.54-1.14-2.78-3.223-2.344-2.18-2.03-1.827.794-5.597 1.72-2.297 2.408-3.698 2.193-4.299-.205-.572-1.47-.42-1.47-.42l-4.21.026s-.312-.043-.544.096c-.226.136-.372.452-.372.452s-.666 1.777-1.555 3.288c-1.875 3.19-2.624 3.358-2.93 3.16-.713-.462-.535-1.854-.535-2.844 0-3.09.468-4.378-.911-4.712-.458-.11-.795-.184-1.965-.195-1.502-.016-2.774.004-3.494.358-.479.234-.848.758-.623.788.278.037.908.17 1.242.626.432.588.417 1.908.417 1.908s.247 3.638-.58 4.09c-.567.31-1.345-.323-3.017-3.216-.856-1.482-1.503-3.12-1.503-3.12s-.124-.306-.347-.47C5.29.77 4.913.707 4.913.707l-4 .026S.311.75.09 1.011c-.196.233-.015.714-.015.714s3.132 7.34 6.679 11.04c3.251 3.39 6.944 3.168 6.944 3.168Z" fill="#FCFCFC"/></symbol></svg>